<svg width="833" height="432" viewBox="0 0 833 432" fill="none" xmlns="http://www.w3.org/2000/svg">
<path d="M63.7665 309.128C63.7665 372.565 63.7665 338.7 63.7665 372.565C63.7665 406.431 63.7665 372.565 63.7665 431.767C29.9006 431.767 2.44697 404.314 2.44697 370.448C2.44697 336.582 29.9006 309.128 63.7665 309.128Z" fill="#333333"/>
<path d="M76.3811 431.767V309.128H90.1757V431.767H76.3811Z" fill="#333333"/>
<path d="M105.06 431.767V309.128H118.855V431.767H105.06Z" fill="#333333"/>
<path d="M133.633 431.84V395.069H688.522V431.84H133.633Z" fill="#333333"/>
<path d="M133.738 346.04V309.268H688.487V346.04H133.738Z" fill="#333333"/>
<path d="M688.477 431.767L686.551 427.261L819.728 370.358L821.653 374.865L688.477 431.767Z" fill="#333333"/>
<path d="M684.615 313.806L686.541 309.3L819.713 366.212L817.787 370.719L684.615 313.806Z" fill="#333333"/>
<path d="M831.962 370.901L816.053 377.197L816.017 364.696L831.962 370.901Z" fill="#333333"/>
<path d="M802.481 378.339V363.101L816.395 364.923V376.517L802.481 378.339Z" fill="#333333"/>
<path d="M67.0231 42.2722L158.177 36.4991C160.811 36.4991 163.343 39.0312 165.774 44.0953C165.774 51.7928 156.861 55.6415 139.035 55.6415L85.8616 58.68L84.6462 59.2877C89.7104 92.3058 92.2424 155 92.2424 247.369C91.2296 256.282 87.9886 260.739 82.5193 260.739C77.2526 260.739 74.2141 256.687 73.4039 248.585V178.092C73.4039 131.097 71.2769 91.9006 67.0231 60.5031C30.7639 63.9467 12.6344 67.998 12.6344 72.657L9.89974 73.8724C3.62023 72.0493 0.480469 68.8082 0.480469 64.1492C0.480469 53.0082 22.6613 45.7158 67.0231 42.2722Z" fill="#333333"/>
<path d="M175.437 69.6185L183.033 68.4031H186.072C190.123 68.4031 194.58 70.9352 199.441 75.9993C208.354 75.9993 221.014 87.1404 237.422 109.423C251.399 135.756 258.388 159.152 258.388 179.611C258.388 207.565 248.259 226.201 228.003 235.519L208.861 239.469C178.476 239.469 156.599 216.681 143.229 171.104C140.191 159.152 138.672 147.505 138.672 136.161V133.123C138.672 98.8891 150.927 77.7211 175.437 69.6185ZM172.703 98.7879L166.018 96.0532C159.739 103.548 156.599 114.385 156.599 128.565V136.769C156.599 174.243 169.259 201.488 194.58 218.504L203.087 220.327H214.634C225.167 220.327 232.763 213.743 237.422 200.577L239.245 187.207V177.788C239.245 147.403 227.193 120.158 203.087 96.0532L190.63 92.4071H190.022C185.971 92.4071 180.198 94.534 172.703 98.7879Z" fill="#333333"/>
<path d="M299.841 56.553C328.403 56.553 355.952 71.7454 382.488 102.13C390.591 118.133 394.642 133.629 394.642 148.619C394.642 183.865 376.715 209.793 340.861 226.404C329.315 231.468 316.857 234 303.488 234H295.891C288.397 233.797 284.649 230.658 284.649 224.581H283.738C283.738 219.111 287.181 216.276 294.068 216.073H301.057V214.25H301.665C289.106 160.975 282.826 121.374 282.826 95.4455H281.914L274.318 100.307C269.052 100.307 265.912 96.7622 264.899 89.6724C264.899 78.5314 271.179 68.8082 283.738 60.5031C288.802 57.8697 294.17 56.553 299.841 56.553ZM303.488 74.48H301.057V89.0647C301.057 122.285 307.336 164.014 319.895 214.25H320.807C358.281 204.122 377.019 182.245 377.019 148.619C377.019 112.562 356.053 88.457 314.122 76.3031C311.692 75.0877 308.147 74.48 303.488 74.48Z" fill="#333333"/>
<path d="M445.161 69.6185L452.758 68.4031H455.796C459.847 68.4031 464.304 70.9352 469.165 75.9993C478.078 75.9993 490.738 87.1404 507.146 109.423C521.123 135.756 528.112 159.152 528.112 179.611C528.112 207.565 517.983 226.201 497.727 235.519L478.585 239.469C448.2 239.469 426.323 216.681 412.953 171.104C409.915 159.152 408.396 147.505 408.396 136.161V133.123C408.396 98.8891 420.651 77.7211 445.161 69.6185ZM442.427 98.7879L435.742 96.0532C429.463 103.548 426.323 114.385 426.323 128.565V136.769C426.323 174.243 438.983 201.488 464.304 218.504L472.811 220.327H484.358C494.891 220.327 502.487 213.743 507.146 200.577L508.969 187.207V177.788C508.969 147.403 496.917 120.158 472.811 96.0532L460.354 92.4071H459.746C455.695 92.4071 449.922 94.534 442.427 98.7879Z" fill="#333333"/>
<path d="M589.402 14.3067C589.402 6.40532 595.808 0 603.709 0H660.221V273.974H603.709C595.808 273.974 589.402 267.568 589.402 259.667V14.3067Z" fill="#F2F2F2"/>
<path fill-rule="evenodd" clip-rule="evenodd" d="M559 41.6677C559 34.8528 564.524 29.3282 571.339 29.3282H607.821C614.636 29.3282 620.161 34.8528 620.161 41.6677C620.161 48.4826 614.636 54.0073 607.821 54.0073H571.339C564.524 54.0073 559 48.4826 559 41.6677ZM559 89.2365C559 82.4216 564.524 76.897 571.339 76.897H607.821C614.636 76.897 620.161 82.4216 620.161 89.2365C620.161 96.0515 614.636 101.576 607.821 101.576H571.339C564.524 101.576 559 96.0515 559 89.2365ZM571.339 124.468C564.524 124.468 559 129.993 559 136.807C559 143.622 564.524 149.147 571.339 149.147H607.821C614.636 149.147 620.161 143.622 620.161 136.807C620.161 129.993 614.636 124.468 607.821 124.468H571.339ZM559 184.376C559 177.561 564.524 172.037 571.339 172.037H607.821C614.636 172.037 620.161 177.561 620.161 184.376C620.161 191.191 614.636 196.716 607.821 196.716H571.339C564.524 196.716 559 191.191 559 184.376ZM571.339 219.606C564.524 219.606 559 225.13 559 231.945C559 238.76 564.524 244.285 571.339 244.285H607.821C614.636 244.285 620.161 238.76 620.161 231.945C620.161 225.13 614.636 219.606 607.821 219.606H571.339Z" fill="#333333"/>
<path d="M668.445 0H823.673C828.414 0 832.257 3.8432 832.257 8.58403V265.39C832.257 270.13 828.414 273.974 823.673 273.974H668.445V0Z" fill="#F2F2F2"/>
<path d="M728.892 32.9049C728.892 30.9295 730.493 29.3282 732.468 29.3282H811.155C813.131 29.3282 814.732 30.9295 814.732 32.9049C814.732 34.8802 813.131 36.4815 811.155 36.4815H732.468C730.493 36.4815 728.892 34.8802 728.892 32.9049Z" fill="#333333"/>
<path d="M728.892 70.5923C728.892 68.617 730.493 67.0157 732.468 67.0157H811.155C813.131 67.0157 814.732 68.617 814.732 70.5923C814.732 72.5677 813.131 74.169 811.155 74.169H732.468C730.493 74.169 728.892 72.5677 728.892 70.5923Z" fill="#333333"/>
<path d="M728.892 108.18C728.892 106.205 730.493 104.604 732.468 104.604H811.155C813.131 104.604 814.732 106.205 814.732 108.18C814.732 110.156 813.131 111.757 811.155 111.757H732.468C730.493 111.757 728.892 110.156 728.892 108.18Z" fill="#333333"/>
<path d="M680.407 107.712C681.877 106.392 684.138 106.513 685.458 107.982L692.286 115.582C693.607 117.051 693.486 119.313 692.016 120.633C690.547 121.953 688.286 121.832 686.965 120.363L680.137 112.763C678.817 111.294 678.938 109.032 680.407 107.712Z" fill="#333333"/>
<path d="M709.041 98.526C710.44 99.9211 710.442 102.186 709.047 103.584L692.49 120.182C691.095 121.58 688.83 121.583 687.432 120.188C686.033 118.793 686.03 116.528 687.425 115.13L703.983 98.5322C705.378 97.1337 707.643 97.1309 709.041 98.526Z" fill="#333333"/>
<path d="M680.407 68.712C681.877 67.3918 684.138 67.5127 685.458 68.9821L692.286 76.5818C693.607 78.0512 693.486 80.3126 692.016 81.6328C690.547 82.953 688.286 82.8321 686.965 81.3627L680.137 73.763C678.817 72.2936 678.938 70.0322 680.407 68.712Z" fill="#333333"/>
<path d="M709.041 59.526C710.44 60.9211 710.442 63.1857 709.047 64.5842L692.49 81.1818C691.095 82.5803 688.83 82.583 687.432 81.188C686.033 79.7929 686.03 77.5282 687.425 76.1298L703.983 59.5322C705.378 58.1337 707.643 58.1309 709.041 59.526Z" fill="#333333"/>
<path d="M680.408 29.6135C681.877 28.2933 684.138 28.4142 685.459 29.8836L692.287 37.4833C693.607 38.9527 693.486 41.2141 692.017 42.5343C690.547 43.8545 688.286 43.7336 686.966 42.2642L680.138 34.6645C678.817 33.1951 678.938 30.9337 680.408 29.6135Z" fill="#333333"/>
<path d="M709.041 20.4275C710.44 21.8226 710.443 24.0872 709.048 25.4857L692.49 42.0833C691.095 43.4818 688.83 43.4845 687.432 42.0894C686.033 40.6943 686.031 38.4297 687.426 37.0312L703.983 20.4336C705.378 19.0352 707.643 19.0324 709.041 20.4275Z" fill="#333333"/>
</svg>
